<svg viewBox="0 0 97 40" xmlns="http://www.w3.org/2000/svg"><path d="M91.5 8.28l-3.24 23.28h2.21l.76-6.28h2.71l.76 6.28H97L93.8 8.28h-2.3zm0 14.92l1.12-9.37 1.12 9.37H91.5zM81.36 8.28c-2.48 0-3.83 1.35-3.83 3.6v16.24c0 2.25 1.35 3.6 3.83 3.6s3.83-1.35 3.83-3.6V11.88c0-2.25-1.35-3.6-3.83-3.6zm1.52 19.84c-.120395.734818-.755384 1.274236-1.5 1.274236s-1.379605-.539418-1.5-1.274236V11.88c.120395-.734818.755384-1.274236 1.5-1.274236s1.379605.539418 1.5 1.274236v16.24zM54.44 11.88v3.23c0 5.58 5.35 6.05 5.35 10.14v2.87c-.120395.734818-.755384 1.274236-1.5 1.274236s-1.379605-.539418-1.5-1.274236V23.3h-2.35v4.82c0 2.25 1.36 3.6 3.84 3.6 2.48 0 3.82-1.35 3.82-3.6v-2.87c0-5.45-5.34-6.21-5.34-10.14v-3.23c.120395-.734818.755384-1.274236 1.5-1.274236s1.379605.539418 1.5 1.274236v4.82h2.34v-4.82c0-2.25-1.35-3.6-3.82-3.6-2.48 0-3.84 1.35-3.84 3.6zM40.8 8.44h-2.31v23.12h6.41v-2.08h-4.1V8.44zm31.08 11.49c1.047662-.323039 1.74324-1.31496 1.69-2.41v-5.61c0-2.24-1.26-3.47-3.74-3.47H66v23.12h4c2.48 0 3.73-1.26 3.73-3.47v-5.71c.046558-1.153363-.727946-2.179058-1.85-2.45zm-3.53-9.44h1.48c.386945-.037722.770464.099719 1.045372.374628.27491.274908.41235.658427.374628 1.045372v5.61c.035628.383859-.103649.763331-.37914 1.033002-.27549.26967-.65785.400813-1.04086.356998h-1.48v-8.42zm3.07 17.6c.035628.383859-.103649.763331-.37914 1.033002-.27549.26967-.65785.400813-1.04086.356998h-1.65V21H70c.38301-.043815.76537.087328 1.04086.356998.275491.26967.414768.649143.37914 1.033002v5.7zm-53 1.82c0 5.1-2.85 9.24-6.38 9.24S5.71 35 5.71 29.91V.47H0v26.59c0 7.44 5.41 12.47 12.08 12.47s12.09-5 12.09-12.47V.47h-5.71l-.04 29.44zm29.71 1.65h2.31V8.44h-2.27l-.04 23.12z" fill="#000" fill-rule="nonzero"></path></svg>
